<svg width="621" height="769" viewBox="0 0 621 769" fill="none" xmlns="http://www.w3.org/2000/svg">
<path fill-rule="evenodd" clip-rule="evenodd" d="M450.219 89.0293H477.134V45.7556C477.134 20.594 456.823 0 431.539 0H212.033C186.96 0 166.438 20.3828 166.438 45.7556V89.0293H193.38V49.5047C193.38 37.0163 203.325 27.0362 215.769 27.0362H427.829C440.274 27.0362 450.219 37.0163 450.219 49.5047V89.0293ZM381.181 182.018C364.606 181.596 355.897 191.576 354.845 201.16L404.808 202.401C405.018 192.632 397.125 182.23 381.181 182.018ZM227.793 112.949L226.346 172.012C234.213 160.791 248.525 154.322 264.496 154.745C293.305 155.378 304.092 169.926 303.461 194.692L301.803 260.83L272.152 260.196L273.599 200.711C273.809 188.857 268.837 180.751 253.919 180.329C239.422 179.906 229.451 187.827 225.53 199.471L224.083 258.744L194.248 258.111L197.773 112.923H33.1769V312.394H620.209V112.949H227.793ZM141.364 260.012C116.896 259.378 104.477 246.282 104.872 226.111L106.109 174.098L80.6141 170.56L81.035 153.504L106.53 154.137L107.161 127.708L136.997 128.553L136.365 154.982L171.384 155.827L170.963 175.787L135.944 174.943L134.708 222.784C134.497 231.101 138.023 237.965 147.758 238.177C157.282 238.388 164.543 237.147 172.226 234.639L177.409 256.685C167.885 258.982 156.072 260.434 141.338 260.012H141.364ZM354.871 217.371L433.617 219.245V213.226C434.433 180.144 418.489 158.731 382.207 157.887C345.531 156.83 325.64 177.424 324.798 210.507C323.957 244.645 345.32 265.213 381.997 266.058C400.256 266.48 415.174 263.549 426.987 257.53L415.595 234.243C406.886 238.388 395.073 240.474 383.47 240.262C365.658 239.84 355.292 230.467 354.871 217.371ZM1.86802 336.342L1.23658 412.487H24.8631V385.239H55.7512V412.487H92.2433V433.292H55.7512V483.008C55.7512 491.536 59.4872 498.612 69.6429 498.612C79.7986 498.612 87.0602 497.159 94.927 494.255L100.926 517.146C90.9805 519.839 78.7462 521.714 63.4074 521.714C37.9129 521.714 24.6526 508.407 24.6526 487.391V433.503L1.0261 430.81L0 536.05L586.611 545.819L588.479 346.348L1.86802 336.342ZM149.231 518.149H118.343V412.487H149.231V518.149ZM149.231 394.374H118.343V363.378H149.231V394.374ZM331.455 384.632C341.39 384.632 349.251 386.292 356.926 389.19L362.317 366.731C353.003 363.615 342.216 361.952 325.22 361.952C299.515 361.952 285.412 375.47 285.412 396.487V412.724H228.398V400.658C228.398 392.553 233.16 384.843 243.737 384.843C253.682 384.843 261.549 386.506 269.232 389.411L274.836 366.52C265.732 363.404 254.945 361.741 237.738 361.741C212.033 361.741 197.931 375.259 197.931 396.275V412.513H171.411V430.414L197.931 433.318V518.176H228.609V433.318H285.623V518.176H316.3V433.318H352.793V412.513H316.116V400.447C316.116 392.341 320.878 384.632 331.455 384.632ZM403.177 518.149H372.709V412.487H403.177V518.149ZM403.177 394.374H372.709V363.378H403.177V394.374ZM550.513 518.149H519.862V456.579C519.862 444.302 514.258 435.985 498.919 435.985C483.58 435.985 473.846 444.302 469.899 456.579V518.149H439.011V412.487H462.216L465.111 429.754C473.188 417.688 489.579 409.16 506.786 409.16C537.253 409.16 550.513 423.919 550.513 449.503V518.149ZM349.477 693.093C368.131 692.486 377.471 679.153 376.84 662.73C376.419 646.519 366.263 633.608 347.609 634.242C329.166 634.849 319.615 648.367 320.036 664.605C320.668 680.816 331.034 693.727 349.477 693.093ZM186.355 569.529L188.223 630.281C195.695 619.06 206.456 611.773 223.241 611.35C255.577 610.321 273.599 634.453 274.441 666.268C275.467 697.687 259.734 723.06 225.925 724.089C207.482 724.723 193.59 717.225 185.302 704.947L183.645 722.003L161.676 722.637L156.914 569.529H28.3885V769H615.21V569.529H186.355ZM350.504 719.918C312.985 721.159 292.042 699.957 291.016 665.423C289.99 630.888 309.67 608.42 347.188 607.39C384.707 606.149 405.439 627.35 406.465 661.885C407.307 696.419 387.811 718.888 350.504 719.918ZM508.049 711.812L476.134 673.74H474.056L444.404 713.687L422.856 714.32L422.225 691.033L450.824 659.403L422.225 631.522L421.199 608.235L442.957 607.601L472.793 644.01H474.872L502.445 605.938L524.203 605.304L525.045 628.802L497.893 658.347L528.36 688.103L529.202 711.601L508.049 711.812ZM556.565 710.333L555.723 680.604L583.717 679.759L584.559 709.304L556.565 710.333ZM245.21 666.875C245.631 683.297 236.081 696.63 217.427 697.238H213.48C212.49 697.146 211.505 697.015 210.538 696.847C209.983 696.763 209.434 696.655 208.893 696.521C208.197 696.366 207.514 696.191 206.85 695.997C206.535 695.891 206.173 695.785 205.811 695.68L205.806 695.678C205.446 695.573 205.086 695.468 204.772 695.363C204.514 695.277 204.261 695.155 203.994 695.028C203.607 694.842 203.192 694.643 202.693 694.518C193.169 689.739 187.144 679.759 187.144 668.089C187.144 651.852 199.168 638.756 214.717 638.756H215.559C234.213 637.726 244.579 650.4 245.21 666.848V666.875Z" fill="url(#paint0_linear_1321_2801)" fill-opacity="0.2"/>
<defs>
<linearGradient id="paint0_linear_1321_2801" x1="139.243" y1="-66.9707" x2="652.279" y2="788.24" gradientUnits="userSpaceOnUse">
<stop stop-color="#080808"/>
<stop offset="0.519249" stop-color="white"/>
<stop offset="1" stop-color="#080808"/>
</linearGradient>
</defs>
</svg>
