<svg width="1887" height="503" viewBox="0 0 1887 503" fill="none" xmlns="http://www.w3.org/2000/svg">
<path d="M1491.39 197.406C1490.89 196.652 1489.66 197.152 1489.64 197.17C1485.75 201.109 1480.46 200.385 1475.72 201.277C1469.53 202.441 1463.29 203.328 1457.05 204.166C1451.25 204.944 1445.41 205.505 1439.59 206.15C1432.37 206.958 1425.15 207.857 1417.91 208.539C1408.29 209.443 1398.64 210.155 1389 210.981C1382.98 211.5 1376.95 212.103 1370.93 212.621C1368.32 212.845 1365.67 213.14 1363.12 212.398C1362.55 212.229 1362.16 212.374 1361.91 212.519C1356.91 215.492 1351.45 213.598 1346.23 213.864C1342.98 214.027 1341.61 210.836 1340.57 208.243C1338.29 202.568 1337.54 196.519 1336.91 190.47C1335.98 181.442 1336.08 172.377 1336.36 163.331C1336.74 151.306 1337.72 139.304 1339.92 127.447C1340.95 121.887 1343.37 117.756 1349.21 115.573C1359.5 111.731 1370.14 109.638 1380.88 107.871C1387.89 106.719 1394.91 105.634 1401.96 104.88C1409.77 104.048 1417.62 103.716 1425.45 102.998C1438.67 101.786 1451.95 101.497 1465.2 101.34C1473.92 101.231 1482.68 101.448 1491.4 102.232C1498.4 102.866 1505.35 103.638 1512.19 105.362C1517.21 106.623 1520.26 109.319 1521.24 114.469C1523.16 124.673 1525.02 134.878 1526.08 145.226C1526.76 151.885 1527.84 158.5 1528.75 165.134" stroke="#634C1E" stroke-linecap="round" stroke-linejoin="round"/>
<path d="M1438.08 407.883C1435.79 410.579 1435.52 414.059 1434.48 417.237C1431.09 427.64 1427.41 437.893 1421.85 447.41C1416.4 456.727 1408.42 461.781 1397.72 462.451C1380.15 463.554 1365.5 457.397 1354.45 443.701C1349.07 437.043 1348.99 430.487 1354.99 424.203C1357.93 421.115 1361.47 418.697 1365.21 416.664C1372.38 412.774 1379.96 409.825 1387.8 407.618C1396.78 405.085 1405.86 403.077 1415.18 402.051C1419.73 401.551 1424.23 401.666 1428.75 401.593C1432.1 401.539 1435.69 402.504 1437.3 405.278C1439.12 408.414 1441.39 411.363 1442.39 415.096C1444.77 423.883 1445.21 432.658 1444.16 441.668C1443.01 451.541 1439.59 460.497 1433.82 468.469C1426.17 479.054 1415.62 485.489 1403.15 489.029C1396.34 490.965 1389.4 491.863 1382.37 491.369C1371.17 490.579 1361.13 486.417 1352.28 479.621C1342.83 472.359 1335.73 463.09 1330.91 452.198C1327.28 443.984 1325.44 435.336 1326.69 426.29C1327.25 422.164 1329.58 419.022 1332.97 416.628C1341.83 410.368 1351.8 406.43 1361.9 402.781C1377.3 397.209 1393.01 392.643 1408.87 388.597C1418.8 386.064 1428.73 383.525 1438.7 381.112C1439.89 380.823 1441.29 380.274 1442.6 381.052" stroke="#634C1E" stroke-linecap="round" stroke-linejoin="round"/>
<path d="M1020.38 485.983C1020.02 484.361 1018.61 483.903 1017.37 483.269C1008.84 478.915 1001.78 472.999 996.851 464.598C993.219 458.398 991.334 451.74 990.895 444.672C989.907 428.756 994.689 414.493 1004.18 401.901C1010.69 393.259 1018.93 386.564 1029.42 383.175C1039.52 379.912 1049.5 380.431 1059.23 384.677C1070.72 389.7 1081.08 396.214 1087.84 407.274C1092.91 415.579 1094.72 424.486 1092.97 434.112C1088.85 456.74 1074.87 471.268 1054.67 480.459C1049.58 482.775 1044 484.029 1038.45 485.061C1036.72 485.38 1035.06 485.41 1033.56 486.791C1032.32 487.931 1030.41 486.918 1028.82 486.846C1026.61 486.743 1024.39 486.508 1022.19 486.255C1019.6 485.959 1017.26 487.183 1014.67 487.31C1007.31 487.672 999.983 487.316 992.683 486.797C984.432 486.206 976.204 485.133 967.989 484.12C964.851 483.734 961.761 482.95 958.647 482.347" stroke="#634C1E" stroke-linecap="round" stroke-linejoin="round"/>
<path d="M1531.14 180.218C1531.46 182.95 1530.41 185.568 1530.76 188.366C1531.67 195.675 1532.29 203.027 1532.93 210.372C1533.6 218.207 1534.22 226.047 1534.73 233.893C1535.5 245.448 1536.28 257.003 1536.79 268.57C1536.99 272.87 1537.06 277.207 1536.62 281.543C1536.39 283.883 1535.09 284.842 1533.23 285.113C1525.03 286.319 1516.83 287.598 1508.54 288.207C1502.41 288.659 1496.3 289.534 1490.17 290.113C1480.54 291.023 1470.9 291.868 1461.26 292.682C1453.53 293.333 1445.8 293.9 1438.07 294.497C1430.24 295.106 1422.41 295.739 1414.58 296.3C1405.54 296.946 1396.51 297.494 1387.48 298.128C1380.75 298.598 1374.03 299.165 1367.3 299.599C1365.77 299.696 1364.41 299.907 1363.38 301.137" stroke="#634C1E" stroke-linecap="round" stroke-linejoin="round"/>
<path d="M1089.95 329.482C1085.69 340.567 1084.75 351.555 1089.24 362.996C1093.52 373.882 1099.31 383.724 1106.14 393.162C1115.11 405.55 1125.37 416.635 1136.92 426.592C1141.45 430.5 1146.65 432.363 1152.58 432.996C1158.2 433.599 1163.81 434.251 1169.44 434.824C1176.07 435.499 1182.69 435.879 1189.33 436.205C1204.88 436.965 1220.43 437.568 1236 437.839C1243.63 437.972 1251.26 438.195 1258.89 438.37C1271.24 438.653 1283.58 439.299 1295.93 439.425C1298.8 439.455 1301.51 440.426 1304.36 440.149" stroke="#634C1E" stroke-linecap="round" stroke-linejoin="round"/>
<path d="M1117.96 251.081C1113.48 248.162 1108.71 249.591 1104.12 250.393C1096.54 251.714 1089.07 253.59 1081.51 254.922C1078.78 255.405 1075.89 255.17 1073.09 254.941C1071.15 254.784 1069.9 253.566 1069.75 251.382C1069.31 245.044 1069.3 238.718 1069.77 232.385C1070.35 224.768 1070.96 217.163 1073.05 209.763C1073.69 207.508 1074.65 205.421 1075.83 203.461C1077.28 201.055 1078.9 200.711 1081.51 201.935C1084.89 203.521 1087.59 206.018 1090.24 208.569C1094.08 212.266 1097.89 215.987 1101.69 219.726C1103.4 221.409 1105.39 222.724 1107.43 223.912C1110.89 225.926 1113.62 224.605 1114.64 220.625C1115.62 216.85 1114.94 213.195 1113.39 209.787C1110.79 204.07 1106.9 199.185 1102.93 194.36C1099.69 190.422 1095.84 186.87 1093.89 182.015C1091.99 177.275 1091.18 172.444 1092.27 167.234C1093.46 161.607 1097.17 158.32 1102.04 156.848C1107.66 155.154 1113.61 154.72 1119.47 156.674C1125.25 158.597 1126.59 161.981 1126.35 167.553C1126.14 172.366 1123.99 176.642 1121.81 180.791C1120.23 183.782 1118.14 186.52 1116.13 189.252C1113.93 192.232 1113.87 194.608 1116.14 197.72C1118.52 200.976 1121.66 203.455 1124.59 206.151C1130 211.126 1130.57 209.806 1127.49 217.332C1126.15 220.595 1124.8 223.761 1124.62 227.554C1124.49 230.136 1122.38 232.783 1121.76 235.684C1121.59 236.468 1121.55 237.367 1121.22 238.096C1121.02 238.537 1121.11 238.724 1121.28 239.025" stroke="#634C1E" stroke-linecap="round" stroke-linejoin="round"/>
<path d="M997.195 343.052C997.634 344.976 999.574 345.416 1000.85 345.965C1015.38 352.237 1029.71 358.925 1043.87 365.963C1058.85 373.405 1073.46 381.432 1087.28 390.931C1099.32 399.205 1106.94 410.435 1109.67 424.499C1112.4 438.623 1111.1 452.633 1103.77 465.46C1095.82 479.398 1083.7 487.407 1067.97 490.235C1059.41 491.773 1050.92 491.701 1042.36 490.271C1039.68 489.825 1036.99 489.729 1034.52 488.42C1033.93 488.106 1033.44 487.877 1033.33 487.184" stroke="#634C1E" stroke-linecap="round" stroke-linejoin="round"/>
<path d="M1262.81 398.535C1262.47 398.409 1261.9 398.843 1261.77 398.234C1260.44 392.07 1256.66 387.125 1253.42 381.993C1242.94 365.402 1232.06 349.064 1221.61 332.467C1216.54 324.404 1211.46 316.286 1208.26 307.192C1208.11 306.769 1208.12 306.359 1208 305.973C1205.53 298.519 1207.33 296.855 1215.54 296.113C1227.7 295.015 1236.26 301.408 1242.9 310.822C1247.37 317.149 1249.75 324.356 1251.62 331.882C1254.65 344.125 1258.9 356.018 1263.44 367.778C1266.3 375.172 1268.56 383.006 1272.68 389.658C1277.37 397.239 1278.85 405.863 1282.63 413.655C1283.35 415.144 1284.09 416.109 1285.7 416.338" stroke="#634C1E" stroke-linecap="round" stroke-linejoin="round"/>
<path d="M1301.66 252.89C1300.91 256.068 1297.78 256.292 1295.6 257.504C1284.36 263.734 1272.18 267.684 1259.76 270.524C1251.72 272.364 1243.48 273.588 1235.1 273.799C1228.76 273.956 1222.44 273.823 1216.13 273.371C1214.43 273.25 1212.73 272.828 1211.55 271.103C1212.66 268.178 1215.72 267.973 1218.11 267.129C1226.68 264.114 1235.55 262.196 1244.45 260.453C1252.66 258.843 1260.89 257.323 1269.14 255.936C1277.33 254.555 1285.54 253.252 1293.83 252.558C1296.56 252.329 1299.29 252.432 1301.95 252.329C1304.97 252.215 1308.47 251.491 1310.77 248.427C1312.63 245.955 1315.16 244.001 1317.31 241.727C1319.22 239.701 1320.64 237.324 1321.84 234.81C1324.46 229.322 1322.28 224.605 1319.43 220.034C1313.13 209.968 1305.23 201.175 1297.08 192.654C1286.09 181.147 1274.73 169.99 1262.83 159.412C1249.27 147.356 1235.28 135.843 1220.01 126.031C1216.07 123.504 1211.52 121.93 1207.25 119.922" stroke="#634C1E" stroke-linecap="round" stroke-linejoin="round"/>
<path d="M1353.16 279.426C1356.68 277.725 1360.58 277.9 1364.31 277.399C1373.54 276.151 1382.8 275.102 1392.01 273.739C1397.5 272.924 1403.06 272.563 1408.57 271.875C1415.71 270.988 1422.81 269.903 1429.96 269.053C1436.36 268.287 1442.8 267.72 1449.23 267.068C1456.66 266.315 1464.08 265.458 1471.52 264.831C1482.74 263.884 1493.99 263.245 1505.24 264.137C1507.61 264.324 1510.32 264.349 1512.18 266.779C1511.6 269.68 1508.65 269.975 1506.42 270.603C1496.85 273.31 1487.03 275.017 1477.23 276.651C1469.25 277.978 1461.17 278.738 1453.15 279.733C1443.31 280.951 1433.5 282.526 1423.63 283.261C1411.49 284.166 1399.39 285.583 1387.19 285.836C1382.08 285.939 1376.97 286.494 1371.83 286.367C1370.51 286.337 1369.2 286.488 1367.89 285.824C1367.18 285.463 1366.9 286.259 1367.02 286.97" stroke="#634C1E" stroke-linecap="round" stroke-linejoin="round"/>
<path d="M1244.14 301.74C1246.54 301.806 1248.92 301.408 1251.14 303.145C1252.18 303.953 1254.07 303.803 1255.58 303.827C1270.44 304.08 1285.31 303.784 1300.15 303.169C1305.17 302.964 1310.18 302.627 1315.21 302.627C1315.92 302.627 1316.77 302.663 1317.3 302.301C1321.08 299.702 1325.24 300.721 1329.37 300.745C1332.68 300.763 1335.98 300.685 1339.3 300.775C1345.63 300.95 1351.95 301.083 1358.28 301.312C1360.96 301.408 1363.12 301.915 1365.58 303.055C1368.54 304.43 1372.12 304.466 1375.44 305.045C1396.01 308.621 1416.09 313.946 1435.05 322.872C1449.98 329.904 1463.34 339.143 1474.28 351.73C1476.21 353.955 1477.88 357.019 1481.44 357.188C1483.24 357.272 1485.06 357.019 1486.86 356.916" stroke="#634C1E" stroke-linecap="round" stroke-linejoin="round"/>
<path d="M1177.28 242.638C1175.73 244.839 1173.08 244.562 1170.94 245.273C1163.71 247.674 1158.02 251.419 1156.51 259.524C1155.76 263.577 1156.14 267.618 1156.99 271.58C1159.93 285.403 1164.27 298.816 1169.35 311.975C1174.07 324.218 1179.05 336.358 1184.73 348.22C1189.87 358.961 1195.33 369.479 1201.7 379.533C1204 383.175 1206.7 386.535 1209.53 389.779C1210.18 390.521 1210.79 391.233 1211.02 392.204" stroke="#634C1E" stroke-linecap="round" stroke-linejoin="round"/>
<path d="M1276.06 393.409C1276.75 391.968 1276.83 390.556 1276.76 388.88C1275.96 370.051 1281.28 354.009 1298.04 343.341C1305.09 338.848 1313.01 336.779 1320.92 334.572C1324.01 333.709 1327.18 333.577 1330.24 332.949C1335.05 331.96 1339.92 331.273 1344.69 330.242C1347.64 329.602 1350.6 329.608 1353.48 329.355C1364.48 328.396 1375.53 328.113 1386.6 329.108C1394.58 329.825 1402.45 330.869 1410.09 333.39C1414.25 334.765 1418.3 336.556 1421.45 339.511C1425.33 343.148 1425.67 346.326 1421.21 350.276C1417.7 353.388 1413.6 355.65 1409.47 357.815C1395.85 364.943 1381.56 370.498 1367.34 376.275C1351.58 382.68 1335.66 388.687 1320.35 396.141C1317.57 397.498 1314.88 399.072 1312.22 400.658C1306.71 403.927 1304.48 409.535 1302.67 415.15C1300.74 421.066 1299.47 427.188 1299.5 433.514C1299.5 435.251 1300.88 436.867 1299.86 438.64" stroke="#634C1E" stroke-linecap="round" stroke-linejoin="round"/>
<path d="M1176.08 133.78C1178.05 140.432 1181.55 146.427 1184.26 152.759C1188.49 162.662 1192.73 172.553 1195.61 182.944C1196.8 187.256 1197.77 191.64 1197.8 196.2C1197.85 201.881 1195.65 205.813 1190.25 207.99C1179.3 212.392 1167.94 214.757 1156.21 215.896C1150.26 216.475 1144.16 216.53 1138.42 218.785C1135.22 220.046 1132.56 222.018 1129.99 224.231C1128.55 225.473 1127.37 227.18 1125.18 227.259" stroke="#634C1E" stroke-linecap="round" stroke-linejoin="round"/>
<path d="M1177.28 2.91054C1177.15 1.54756 1177.81 1.71642 1178.8 1.98178C1186.64 4.12877 1194.14 7.07787 1201.07 11.3598C1208.75 16.1121 1215.21 22.1369 1219.73 30.0494C1224.22 37.8835 1226.44 46.3569 1227.02 55.367C1227.87 68.7978 1225.54 81.7883 1221.8 94.5556C1219.39 102.77 1215.5 110.278 1209.54 116.617C1207.71 118.565 1206.27 120.669 1203.19 120.886C1201.32 121.019 1199.76 120 1197.74 120.392C1190.03 121.9 1182.66 124.197 1175.75 127.991C1174.02 128.938 1173.18 130.198 1172.77 131.965" stroke="#634C1E" stroke-linecap="round" stroke-linejoin="round"/>
<path d="M1501.02 184.138C1499.61 186.333 1497.7 187.238 1495.01 187.54C1486.37 188.498 1477.74 187.968 1469.1 188.028C1451.74 188.137 1434.37 187.835 1417 188.149C1406.94 188.33 1396.86 188.673 1386.87 190.404C1381.69 191.303 1378.3 194.3 1375.44 198.311" stroke="#634C1E" stroke-linecap="round" stroke-linejoin="round"/>
<path d="M1501.93 183.837C1500.48 183.396 1500.58 182.069 1500.77 181.135C1502.21 174.091 1497.87 169.23 1493.99 164.622C1486.09 155.22 1475.28 151.167 1463.38 149.424C1454.79 148.164 1446.17 146.903 1437.8 144.551C1434.94 143.749 1432.95 143.894 1430.45 145.715C1428.08 147.44 1424.76 147.295 1421.81 147.627C1411.84 148.761 1401.88 149.593 1392.26 152.995C1383.24 156.185 1376.73 161.926 1371.77 169.941C1367.05 177.576 1365.01 186.002 1363.7 194.698C1363.35 197.044 1365.17 201.211 1366.7 201.929C1367.19 202.158 1367.72 202.544 1368.2 202.502C1375.33 201.899 1382.45 203.015 1389.59 202.279C1397.4 201.471 1405.25 201.073 1413.07 200.409C1419.9 199.824 1426.72 199.089 1433.55 198.473C1439.07 197.979 1444.59 197.521 1450.12 197.116C1458.75 196.483 1467.38 195.808 1476.01 195.343C1479.51 195.156 1483.04 195.5 1486.55 195.597C1487.65 195.627 1488.13 196.658 1488.96 197.104" stroke="#634C1E" stroke-linecap="round" stroke-linejoin="round"/>
<path d="M986.956 339.131C990.479 333.022 996.141 329.054 1001.77 325.351C1015.22 316.497 1030.21 312.42 1046.28 312.969C1054.29 313.241 1062.01 315.526 1069.44 318.409C1075.12 320.616 1080.56 323.463 1086 326.243C1087.11 326.81 1088.28 327.311 1089.35 327.98" stroke="#634C1E" stroke-linecap="round" stroke-linejoin="round"/>
<path d="M1114.64 33.6675C1104.96 30.0973 1095.01 27.5643 1084.84 25.7792C1080.23 24.971 1075.63 24.2835 1070.98 23.8191C1068.23 23.5417 1065.51 23.7468 1062.85 24.0966C1059.27 24.567 1058.56 27.0396 1061.05 29.7354C1064.79 33.7882 1069.5 36.5805 1074.31 39.029C1083.2 43.5521 1092.36 47.5386 1101.32 51.9049C1106.62 54.4922 1112.05 57.3387 1115.87 62.2901C1118 65.0643 1118.83 67.8867 1117.84 71.3665C1116.17 77.2044 1112.82 82.0231 1109.22 86.7332C1106.91 89.7486 1104.43 92.6495 1102.34 95.8097C1100.11 99.1688 1100.98 101.479 1104.71 103.011C1108.66 104.633 1112.9 104.904 1117.05 105.387C1123.29 106.11 1129.57 106.514 1135.71 107.859C1141 109.023 1142.25 112.039 1139.3 116.568C1137.86 118.787 1136.06 120.765 1134.54 122.937C1133.76 124.058 1133.13 125.632 1133.71 126.79C1134.39 128.159 1136.17 127.876 1137.52 127.719C1146.66 126.658 1155.67 125.041 1164.36 121.797C1165.82 121.248 1167.01 120.211 1168.54 119.897" stroke="#634C1E" stroke-linecap="round" stroke-linejoin="round"/>
<path d="M1121.87 239.17C1119.87 239.966 1119.41 241.685 1119.49 243.543C1119.64 247.336 1119.2 251.395 1117.94 254.573C1116.43 258.391 1115.26 262.341 1113.76 266.164C1107.8 281.326 1101.88 296.506 1095.98 311.697C1094.01 316.793 1092.21 321.962 1090.22 327.058C1089.73 328.331 1089.85 328.795 1091.12 329.537C1100.24 334.82 1108.49 341.273 1116.13 348.498C1118.52 350.753 1120.89 352.876 1122.78 355.825C1124.24 358.099 1127.14 359.969 1129.12 362.339C1133.62 367.712 1137.27 373.628 1139.74 380.166C1141.98 386.136 1142.3 392.185 1138.75 397.939C1137.38 400.164 1136.39 400.315 1134.52 398.542C1132.59 396.715 1131.81 394.164 1131.01 391.866C1127.47 381.631 1125.14 371.035 1122.53 360.529C1122.25 359.408 1122.17 358.087 1122.78 356.923" stroke="#634C1E" stroke-linecap="round" stroke-linejoin="round"/>
<path d="M1261.76 398.837C1261.47 401.394 1259.7 402.679 1257.72 404C1252.76 407.317 1247.02 408.342 1241.41 409.283C1230.68 411.092 1219.79 411.84 1208.9 411.713C1201.66 411.629 1194.41 411.243 1187.2 410.097C1184.61 409.687 1182.84 408.336 1180.9 406.979" stroke="#634C1E" stroke-linecap="round" stroke-linejoin="round"/>
<path d="M1437.18 404.566C1439.68 401.599 1439.51 397.746 1440.39 394.29C1441.48 390.05 1442.75 385.798 1442.94 381.348C1442.99 380.057 1443.9 379.725 1445.29 379.454C1454.76 377.608 1464.16 375.419 1473.62 373.538C1482.83 371.704 1492.08 370.082 1501.32 368.387C1506.94 367.356 1512.56 366.361 1518.19 365.384" stroke="#634C1E" stroke-linecap="round" stroke-linejoin="round"/>
<path d="M1249.56 301.137C1251.36 298.755 1254.14 299.315 1256.49 299.098C1270.51 297.79 1284.58 297.627 1298.65 297.838C1304.47 297.928 1310.29 298.236 1316.11 298.411C1317.81 298.459 1319.02 299.273 1320.03 300.534" stroke="#634C1E" stroke-linecap="round" stroke-linejoin="round"/>
<path d="M1115.25 33.366C1116 29.9767 1118.01 27.2085 1120.11 24.6635C1129.82 12.8852 1141.99 4.93649 1157.11 2.05374C1163.79 0.781223 1170.56 0.539988 1177.28 2.00549" stroke="#634C1E" stroke-linecap="round" stroke-linejoin="round"/>
<path d="M1225.92 156.095C1231.68 163.139 1232.94 172.137 1236.24 180.243C1237.71 183.843 1239.28 187.48 1239.91 191.376C1240.94 197.774 1239.24 203.522 1235.73 208.877C1233.08 212.912 1230.11 216.651 1226.35 219.69C1225.49 220.384 1224.72 221.439 1223.36 221.222" stroke="#634C1E" stroke-linecap="round" stroke-linejoin="round"/>
<path d="M1177.74 242.638C1179.54 240.569 1181.88 242.143 1183.93 241.89C1187.87 241.389 1191.73 240.467 1195.64 239.845C1196.63 239.689 1197.47 238.531 1198.36 237.813C1201.74 235.099 1205.87 233.736 1209.55 231.547C1213.75 229.044 1217.78 226.312 1221.84 223.61C1222.78 222.983 1224.03 222.109 1223.04 220.643C1222.19 219.383 1222.47 218.032 1222.47 216.711C1222.44 207.164 1222.12 197.599 1222.56 188.07C1222.98 178.819 1222.97 169.531 1224.22 160.316C1224.4 159.002 1224.75 158.049 1225.78 157.307" stroke="#634C1E" stroke-linecap="round" stroke-linejoin="round"/>
<path d="M1173.67 128.955C1168.63 119.734 1164.61 110.073 1161.7 99.9892C1161 97.5829 1160.83 94.8931 1162.23 92.4687C1163.52 90.2132 1165.2 89.6282 1167.34 90.9791C1173.45 94.8268 1176.77 100.544 1177.85 107.552C1178.46 111.544 1176.21 114.469 1173.34 116.858C1172.12 117.877 1170.56 118.504 1169.16 119.306" stroke="#634C1E" stroke-linecap="round" stroke-linejoin="round"/>
<path d="M1309.94 249.875C1312.11 250.966 1314.38 250.81 1316.72 250.665C1321.81 250.345 1326.88 250.508 1331.77 252.281C1339.52 255.097 1338.27 259.47 1335.08 264.343C1331.71 269.463 1326.83 273.172 1322.7 277.587C1321.93 278.419 1321.39 279.233 1321.23 280.331" stroke="#634C1E" stroke-linecap="round" stroke-linejoin="round"/>
<path d="M1358.58 214.594C1358.4 217.368 1356.26 219.093 1354.92 221.198C1349.5 229.689 1346.46 238.79 1346.45 248.97C1346.44 253.583 1346.18 258.215 1346.25 262.841C1346.35 268.245 1347.84 273.347 1350.14 278.22" stroke="#634C1E" stroke-linecap="round" stroke-linejoin="round"/>
<path d="M1431.76 144.335C1431.24 143.134 1430.32 142.622 1429.07 142.157C1426.08 141.048 1423.12 139.769 1420.62 137.695C1417.82 135.373 1417.3 132.55 1418.4 128.666C1419.18 125.91 1421.86 124.487 1424.51 125.536C1430.25 127.804 1434.19 131.784 1435.73 137.99C1436.21 139.938 1435.46 141.621 1435.37 143.43" stroke="#634C1E" stroke-linecap="round" stroke-linejoin="round"/>
<path d="M1136.93 273.093C1132.71 284.703 1129.59 296.614 1127 308.675C1126.68 310.159 1126.55 311.643 1126.62 313.199C1126.73 315.738 1125.06 317.891 1124.67 320.424C1123.29 329.645 1121.82 338.854 1121.29 348.178C1121.23 349.384 1121.14 350.518 1120.37 351.495" stroke="#634C1E" stroke-linecap="round" stroke-linejoin="round"/>
<path d="M1477.53 356.319C1476.03 358.629 1473.47 357.477 1471.47 357.978C1465.6 359.449 1459.72 360.83 1454.05 362.959C1448.21 365.143 1446.03 370.082 1444.74 375.624C1444.47 376.788 1443.6 377.952 1444.41 379.237" stroke="#634C1E" stroke-linecap="round" stroke-linejoin="round"/>
<path d="M1161.62 236.305C1154.73 244.152 1145.75 246.624 1135.72 246.214C1133.8 246.136 1131.88 245.653 1130.01 245.177C1126.71 244.339 1124.07 242.481 1122.17 239.622" stroke="#634C1E" stroke-linecap="round" stroke-linejoin="round"/>
<path d="M1118.56 255.604C1119.32 256.249 1119.77 256.979 1120.12 257.998C1122.68 265.398 1127.94 269.957 1135.42 272.05C1136.04 272.225 1136.63 272.557 1137.39 272.882C1138.42 269.807 1139.61 266.839 1141.72 264.331C1142.32 263.619 1142.71 262.817 1143.51 262.19C1145.3 260.784 1147.25 259.446 1149.2 261.116C1151.03 262.672 1150.51 265.024 1149.57 267.063C1147.4 271.73 1142.82 273.715 1137.83 272.195" stroke="#634C1E" stroke-linecap="round" stroke-linejoin="round"/>
<path d="M1181.8 406.978C1182.92 404.017 1185.64 402.962 1188.11 401.527C1193.79 398.21 1200 396.28 1206.21 394.386C1208.76 393.608 1211.16 391.31 1214.17 392.963C1216.72 390.707 1219.99 390.755 1223.05 390.068C1229.32 388.663 1235.6 387.812 1242.04 388.705C1243.64 388.928 1244.9 389.531 1245.97 390.749C1245.84 392.8 1244.04 393.174 1242.62 393.674C1236.1 395.996 1229.38 396.967 1222.46 396.129C1220.76 395.924 1219.02 396.473 1217.32 395.707C1216.02 395.122 1214.73 394.669 1214.33 393.107" stroke="#634C1E" stroke-linecap="round" stroke-linejoin="round"/>
<path d="M1161.62 236.004C1159.56 233.73 1156.32 233.043 1154.38 230.588C1153.57 229.569 1152.08 228.676 1152.67 227.295C1153.29 225.854 1154.88 225.383 1156.5 225.444C1158.13 225.504 1159.74 225.365 1161.33 226.023C1164.53 227.349 1165.62 229.876 1164 232.97C1163.48 233.959 1163.4 235.401 1161.93 235.702" stroke="#634C1E" stroke-linecap="round" stroke-linejoin="round"/>
<path d="M1366.71 285.909C1362.86 285.969 1359.5 284.474 1356.14 282.803C1354.88 282.176 1353.79 281.47 1353.2 280.313C1352.37 278.69 1350.83 278.153 1349.57 278.606C1342.62 281.091 1335.26 280.306 1328.15 281.47C1325.58 281.893 1322.84 281.802 1320.33 280.638" stroke="#634C1E" stroke-linecap="round" stroke-linejoin="round"/>
<path d="M1224.87 237.512C1220.52 238.633 1216.01 238.579 1211.62 239.351C1208.12 239.966 1204.53 239.514 1201.07 240.503C1199.61 240.919 1198.38 240.014 1197.16 239.321" stroke="#634C1E" stroke-linecap="round" stroke-linejoin="round"/>
<path d="M1202.28 121.417C1201.95 122.937 1200.85 123.691 1199.59 124.463C1193.68 128.081 1187.21 130.216 1180.59 131.941C1178.09 132.592 1175.68 134.052 1172.85 132.387C1171.92 131.838 1170.28 133.159 1168.85 132.876" stroke="#634C1E" stroke-linecap="round" stroke-linejoin="round"/>
<path d="M1222.46 223.942C1223.26 227.964 1224.08 231.981 1224.85 236.003C1225 236.787 1225.11 237.565 1225.77 238.114C1235.61 235.123 1246.19 234.574 1249.04 236.968C1248.61 238.56 1247.21 239.357 1245.93 239.863C1241.57 241.594 1237.07 242.939 1232.39 243.524C1229.2 243.922 1227.21 242.257 1226.07 238.41" stroke="#634C1E" stroke-linecap="round" stroke-linejoin="round"/>
<path d="M1529.63 165.141C1527.7 166.679 1528.29 168.796 1528.8 170.551C1529.91 174.405 1530.46 178.168 1529.03 182.028" stroke="#634C1E" stroke-linecap="round" stroke-linejoin="round"/>
<path d="M1163.13 235.702C1166.17 238.308 1170.07 238.778 1173.7 239.828C1175.03 240.213 1176.25 240.521 1177.28 241.432" stroke="#634C1E" stroke-linecap="round" stroke-linejoin="round"/>
<path d="M970.091 332.498C972.006 332.281 973.723 333.209 975.156 334.09C978.312 336.026 981.896 337.027 985.016 339.186C986.516 340.223 988.997 340.694 990.87 341.845" stroke="#634C1E" stroke-linecap="round" stroke-linejoin="round"/>
<path d="M985.149 340.036C984.07 341.11 982.848 341.96 981.565 342.798C978.168 345.018 974.855 344.348 972.5 341.242" stroke="#634C1E" stroke-linecap="round" stroke-linejoin="round"/>
<path d="M963.466 334.005C962.689 332.582 962.141 330.664 963.821 330.091C965.285 329.597 967.688 328.173 968.886 330.99" stroke="#634C1E" stroke-linecap="round" stroke-linejoin="round"/>
<path d="M1368.21 202.834C1368.49 204.293 1367.73 205.24 1366.73 206.169C1364.96 207.797 1363.37 209.582 1362.49 211.88" stroke="#634C1E" stroke-linecap="round" stroke-linejoin="round"/>
<path d="M966.327 337.322C967.893 339.228 969.35 341.23 971.585 342.473C972.205 342.816 972.681 343.389 973.404 342.75" stroke="#634C1E" stroke-linecap="round" stroke-linejoin="round"/>
<path d="M991.172 342.448C991.4 341.134 991.834 340.905 993.021 341.791C993.749 342.34 994.195 343.039 994.785 343.655" stroke="#634C1E" stroke-linecap="round" stroke-linejoin="round"/>
<path d="M1375.14 198.914C1374.36 200.162 1372.21 199.529 1371.83 201.326" stroke="#634C1E" stroke-linecap="round" stroke-linejoin="round"/>
<path d="M1373.63 197.708C1374.04 196.489 1374.82 196.526 1375.74 197.105" stroke="#634C1E" stroke-linecap="round" stroke-linejoin="round"/>
<path d="M957.713 482.154C870.824 462.071 850.658 444.722 792.873 445.776C729.514 446.931 669.999 472.938 608.712 485.886C571.193 493.813 533.79 496.961 495.776 491.017C457.837 485.084 291.25 486.66 252.791 491.017C186.321 498.546 80.8818 537.75 1 395.27" stroke="url(#paint0_linear_1321_2854)" stroke-linecap="round" stroke-linejoin="round"/>
<path d="M1518.29 365.368C1605.18 345.285 1625.34 327.936 1683.13 328.99C1746.49 330.145 1806 356.152 1867.29 369.1C1904.81 377.026 1942.21 380.174 1980.22 374.23C2018.16 368.298 2184.75 369.874 2223.21 374.23C2289.68 381.76 2395.12 420.963 2475 278.484" stroke="url(#paint1_linear_1321_2854)" stroke-linecap="round" stroke-linejoin="round"/>
<defs>
<linearGradient id="paint0_linear_1321_2854" x1="169.639" y1="428.905" x2="957.713" y2="448.447" gradientUnits="userSpaceOnUse">
<stop stop-color="#080808"/>
<stop offset="1" stop-color="#634C1E"/>
</linearGradient>
<linearGradient id="paint1_linear_1321_2854" x1="1996.64" y1="331.739" x2="1518.29" y2="331.661" gradientUnits="userSpaceOnUse">
<stop stop-color="#080808"/>
<stop offset="1" stop-color="#634C1E"/>
</linearGradient>
</defs>
</svg>
